<svg width="24" height="27" viewBox="0 0 24 27" fill="none" xmlns="http://www.w3.org/2000/svg">
<path d="M22.9081 18.9132C22.807 18.7909 22.7078 18.6686 22.6103 18.5506C21.2708 16.9235 20.4604 15.9414 20.4604 11.3353C20.4604 8.95059 19.8924 6.99391 18.7727 5.5264C17.9471 4.44228 16.831 3.61986 15.36 3.01207C15.3411 3.00149 15.3242 2.98762 15.3101 2.9711C14.781 1.19174 13.3331 0 11.7002 0C10.0672 0 8.61992 1.19174 8.09082 2.96926C8.0767 2.98518 8.06003 2.99861 8.0415 3.00901C4.60874 4.42821 2.94046 7.15106 2.94046 11.3335C2.94046 15.9414 2.13128 16.9235 0.790572 18.5487C0.693154 18.6667 0.59391 18.7866 0.492839 18.9113C0.23176 19.2275 0.0663444 19.6122 0.0161696 20.0199C-0.0340052 20.4276 0.0331606 20.8411 0.209718 21.2116C0.585386 22.0065 1.38604 22.5 2.29994 22.5H21.1071C22.0167 22.5 22.8119 22.0072 23.1888 21.2159C23.3661 20.8453 23.4339 20.4314 23.3841 20.0233C23.3344 19.6151 23.1692 19.2299 22.9081 18.9132Z" fill="#300759"/>
<path d="M11.6997 27C12.6169 26.9993 13.5167 26.7787 14.3039 26.3615C15.091 25.9442 15.736 25.346 16.1706 24.6302C16.191 24.5959 16.2011 24.5575 16.1999 24.5187C16.1987 24.4799 16.1862 24.442 16.1635 24.4088C16.1409 24.3756 16.109 24.3481 16.0709 24.329C16.0327 24.3099 15.9897 24.3 15.9459 24.3H7.45479C7.41094 24.2999 7.36781 24.3098 7.32958 24.3288C7.29135 24.3478 7.25934 24.3753 7.23665 24.4086C7.21396 24.4418 7.20138 24.4797 7.20012 24.5185C7.19886 24.5574 7.20897 24.5958 7.22947 24.6302C7.66394 25.3459 8.30888 25.9441 9.09588 26.3613C9.88289 26.7785 10.7826 26.9992 11.6997 27Z" fill="#300759"/>
</svg>
