<svg width="15" height="18" viewBox="0 0 15 18" fill="none" xmlns="http://www.w3.org/2000/svg">
<path d="M2.97485e-06 1.45615V16.5418C2.97485e-06 17.6922 1.28632 18.3911 2.27693 17.765L14.3121 10.2221C14.5228 10.0908 14.6964 9.90913 14.8167 9.694C14.9369 9.47887 15 9.23728 15 8.9917C15 8.74612 14.9369 8.50453 14.8167 8.28939C14.6964 8.07426 14.5228 7.89258 14.3121 7.76126L2.27693 0.232989C2.05393 0.0909339 1.79612 0.0107911 1.53072 0.00101547C1.26531 -0.0087602 1.00215 0.0521934 0.76899 0.177446C0.53583 0.302699 0.341318 0.487607 0.205974 0.712664C0.0706289 0.937721 -0.00053025 1.19458 2.97485e-06 1.45615Z" fill="#300759"/>
</svg>
