<svg width="20" height="22" viewBox="0 0 20 22" fill="none" xmlns="http://www.w3.org/2000/svg">
<path d="M14 17L6 12M14 5L6 10M16 7C16.7956 7 17.5587 6.68393 18.1213 6.12132C18.6839 5.55871 19 4.79565 19 4C19 3.20435 18.6839 2.44129 18.1213 1.87868C17.5587 1.31607 16.7956 1 16 1C15.2044 1 14.4413 1.31607 13.8787 1.87868C13.3161 2.44129 13 3.20435 13 4C13 4.79565 13.3161 5.55871 13.8787 6.12132C14.4413 6.68393 15.2044 7 16 7ZM4 14C4.79565 14 5.55871 13.6839 6.12132 13.1213C6.68393 12.5587 7 11.7956 7 11C7 10.2044 6.68393 9.44129 6.12132 8.87868C5.55871 8.31607 4.79565 8 4 8C3.20435 8 2.44129 8.31607 1.87868 8.87868C1.31607 9.44129 1 10.2044 1 11C1 11.7956 1.31607 12.5587 1.87868 13.1213C2.44129 13.6839 3.20435 14 4 14ZM16 21C16.7956 21 17.5587 20.6839 18.1213 20.1213C18.6839 19.5587 19 18.7956 19 18C19 17.2044 18.6839 16.4413 18.1213 15.8787C17.5587 15.3161 16.7956 15 16 15C15.2044 15 14.4413 15.3161 13.8787 15.8787C13.3161 16.4413 13 17.2044 13 18C13 18.7956 13.3161 19.5587 13.8787 20.1213C14.4413 20.6839 15.2044 21 16 21Z" stroke="#300759" stroke-width="2"/>
</svg>
